# xmcd CD database file
# 
# Track frame offsets:
# 	150
# 	17382
# 	35367
# 	49830
# 	64422
# 	81105
# 	95507
# 	110330
# 	123035
# 	139762
# 	152015
# 	167125
# 	185965
# 
# Disc length: 2725 seconds
# 
# Submitted via: Nero 6, 6, 1, 15
# 
# Revision: 0
# Processed by: cddbd v1.5.2PL0 Copyright (c) Steve Scherf et al.
#
DISCID=a80aa30d
DTITLE=John Denver - Spirit[John Denver]
DYEAR=1900
DGENRE=
TTITLE0=Come And Let Me Look In Your Eyes
TTITLE1=Eli's Song
TTITLE2=Wrange Mountain Song
TTITLE3=Hitchhiker
TTITLE4=In The Grand Way
TTITLE5=Polka Dots And Moonbeams
TTITLE6=It Makes Me Giggle
TTITLE7=Baby, You Look Good To Me Tonight
TTITLE8=Like A Sad Song
TTITLE9=San Antonio Rose
TTITLE10=Pegasus
TTITLE11=The Wings That Fly Us Home
TTITLE12=Like A Sad Song (alt. ver.)
EXTD=
EXTT0=
EXTT1=
EXTT2=
EXTT3=
EXTT4=
EXTT5=
EXTT6=
EXTT7=
EXTT8=
EXTT9=
EXTT10=
EXTT11=
EXTT12=
PLAYORDER=
